<?xml version="1.0" standalone="no"?>
<!DOCTYPE svg PUBLIC "-//W3C//DTD SVG 20010904//EN"
 "http://www.w3.org/TR/2001/REC-SVG-20010904/DTD/svg10.dtd">
<svg version="1.0" xmlns="http://www.w3.org/2000/svg"
 width="200.000000pt" height="200.000000pt" viewBox="0 0 200.000000 200.000000"
 preserveAspectRatio="xMidYMid meet">
<metadata>
Created by potrace 1.11, written by Peter Selinger 2001-2013
</metadata>
<g transform="translate(0.000000,200.000000) scale(0.100000,-0.100000)"
fill="#000000" stroke="none">
<path d="M822 1600 c-24 -15 -42 -40 -64 -90 l-31 -70 -43 0 -43 0 -3 58 -3
57 -125 0 -125 0 -3 -56 -3 -57 -37 -6 c-24 -3 -49 -17 -67 -36 l-30 -31 0
-459 0 -460 33 -32 32 -33 668 -3 c440 -2 679 1 702 7 23 7 43 23 58 46 l23
36 -3 449 -3 450 -33 32 -32 33 -208 3 -209 3 -34 72 c-47 100 -63 107 -244
107 -123 0 -144 -3 -173 -20z"/>
</g>
</svg>
